<svg width="13" height="13" viewBox="0 0 13 13" xmlns="http://www.w3.org/2000/svg">
<path fill-rule="evenodd" clip-rule="evenodd" d="M12.7071 0.292893C13.0976 0.683418 13.0976 1.31658 12.7071 1.70711L7.20711 7.20711C6.81658 7.59763 6.18342 7.59763 5.79289 7.20711L0.292893 1.70711C-0.0976315 1.31658 -0.0976315 0.683417 0.292893 0.292893C0.683417 -0.0976316 1.31658 -0.0976316 1.70711 0.292893L6.5 5.08579L11.2929 0.292893C11.6834 -0.0976312 12.3166 -0.0976311 12.7071 0.292893Z" fill="currentColor"/>
<path fill-rule="evenodd" clip-rule="evenodd" d="M12.7071 12.7071C13.0976 12.3166 13.0976 11.6834 12.7071 11.2929L7.20711 5.79289C6.81658 5.40237 6.18342 5.40237 5.79289 5.79289L0.292893 11.2929C-0.0976315 11.6834 -0.0976315 12.3166 0.292893 12.7071C0.683417 13.0976 1.31658 13.0976 1.70711 12.7071L6.5 7.91421L11.2929 12.7071C11.6834 13.0976 12.3166 13.0976 12.7071 12.7071Z" fill="currentColor"/>
</svg>
