<svg width="22" height="22" viewBox="0 0 22 22" xmlns="http://www.w3.org/2000/svg">
<path d="M18.5 20.9998C19.3284 20.9998 20 20.3282 20 19.4998C20 18.6714 19.3284 17.9998 18.5 17.9998C17.6716 17.9998 17 18.6714 17 19.4998C17 20.3282 17.6716 20.9998 18.5 20.9998Z" fill="currentColor" stroke="currentColor" stroke-width="2" stroke-linecap="round" stroke-linejoin="round"/>
<path d="M8.5 20.9998C9.3284 20.9998 10 20.3282 10 19.4998C10 18.6714 9.3284 17.9998 8.5 17.9998C7.67157 17.9998 7 18.6714 7 19.4998C7 20.3282 7.67157 20.9998 8.5 20.9998Z" fill="currentColor" stroke="currentColor" stroke-width="2" stroke-linecap="round" stroke-linejoin="round"/>
<path d="M4 3H21L19 14H6L4 3ZM4 3C3.83333 2.33333 3 1 1 1" stroke="currentColor" stroke-width="2" stroke-linecap="round" stroke-linejoin="round" fill="none"/>
<path d="M19 14H6H4.23077C2.44646 14 1.5 14.7812 1.5 16C1.5 17.2188 2.44646 18 4.23077 18H18.5" stroke="currentColor" stroke-width="2" stroke-linecap="round" stroke-linejoin="round" fill="none"/>
</svg>
