<svg width="50" height="50" viewBox="0 0 50 50" xmlns="http://www.w3.org/2000/svg">
<path d="M22.3427 43.4806C21.6091 43.4806 20.6825 43.2321 18.827 42.2102C17.7735 41.6287 16.756 40.984 15.7802 40.2798L11.4716 41.572C11.3541 41.6071 11.23 41.6141 11.1094 41.5924C10.9887 41.5706 10.8749 41.5208 10.777 41.447C8.45447 39.6985 6.6425 37.3599 5.52937 34.6743C5.48181 34.5597 5.46224 34.4354 5.47229 34.3117C5.48234 34.188 5.52172 34.0684 5.58716 33.963C5.6526 33.8575 5.74222 33.7692 5.84861 33.7053C5.95499 33.6413 6.07507 33.6037 6.1989 33.5954C8.46091 33.4541 10.6769 32.8936 12.7341 31.9423C13.4484 31.6093 14.14 31.2295 14.8044 30.8056C15.7241 30.1604 16.6969 29.5943 17.7122 29.1134C18.3384 28.8404 18.9795 28.603 19.6325 28.4024C19.6911 28.3868 19.7895 28.3602 19.9169 28.3227L20.0473 28.2821C20.1731 28.2431 20.2895 28.2063 20.5669 28.1337C20.8302 28.0657 21.1841 27.9798 21.6216 27.8899C22.6125 27.6524 23.6341 27.5691 24.6505 27.6431C25.1046 27.6764 25.5539 27.7573 25.9911 27.8845C26.5708 28.0579 27.0903 28.2696 27.5927 28.4735C28.1323 28.7047 28.6845 28.9056 29.2466 29.0751C29.7311 29.2138 30.2284 29.3036 30.7309 29.3431C31.2286 29.3907 31.8481 29.4501 32.1169 30.1079C32.1972 30.3303 32.2258 30.5681 32.2004 30.8033C32.1751 31.0384 32.0966 31.2647 31.9708 31.4649C31.6282 32.1317 31.0704 32.6631 30.3878 32.9729C29.7053 33.2828 28.938 33.3529 28.2106 33.172C27.995 33.1392 27.7989 33.1017 27.6184 33.0595C27.887 33.2524 28.1684 33.4267 28.4606 33.5813C29.5671 34.1644 30.804 34.4556 32.0544 34.4274L34.4137 34.4267C34.607 34.4268 34.7934 34.4986 34.9369 34.6282C35.0803 34.7578 35.1706 34.9359 35.1903 35.1282C35.268 35.7595 35.1579 36.3997 34.8739 36.9688C34.1317 38.4079 32.2723 39.1392 30.177 38.8423C28.5784 40.088 26.9368 41.2775 25.2552 42.4087C24.4637 43.0172 23.5152 43.3874 22.5208 43.4759C22.4614 43.4789 22.4021 43.4805 22.3427 43.4806ZM15.9278 38.6384C16.0952 38.6385 16.2582 38.6925 16.3927 38.7923C17.4082 39.5458 18.4731 40.2304 19.5802 40.8415C21.6114 41.9595 22.17 41.929 22.438 41.9157C23.15 41.8391 23.8252 41.5598 24.3833 41.111C26.1287 39.937 27.8304 38.6991 29.4848 37.4001C29.5729 37.3308 29.6749 37.2814 29.7839 37.2553C29.8928 37.2291 30.0062 37.2268 30.1161 37.2485C31.6192 37.5407 33.0364 37.122 33.4848 36.2532C33.5282 36.169 33.5628 36.0805 33.588 35.9892H32.0731C30.6141 36.0216 29.1697 35.6935 27.8679 35.0339C26.5661 34.3743 25.4473 33.4036 24.6106 32.2079C24.2764 32.1853 23.9409 32.1856 23.6067 32.2087C23.4661 32.2188 23.3489 32.2306 23.2708 32.2399C23.0649 32.2638 22.858 32.2048 22.6956 32.0761C22.5332 31.9474 22.4286 31.7595 22.4048 31.5536C22.3809 31.3478 22.4399 31.1409 22.5686 30.9785C22.6973 30.816 22.8852 30.7114 23.0911 30.6876C23.1848 30.6767 23.3255 30.6626 23.4989 30.6501C24.0442 30.6131 24.5917 30.6254 25.1348 30.6868L25.1497 30.6884C25.7259 30.7618 26.2884 30.9189 26.8192 31.1548C27.3394 31.3823 27.887 31.5412 28.4481 31.6274C28.7271 31.6987 29.0168 31.718 29.3028 31.6845C29.7786 31.5624 30.1987 31.2822 30.4942 30.8899C29.9261 30.8397 29.3642 30.7351 28.8161 30.5774C28.2002 30.3926 27.5951 30.1735 27.0036 29.9212C26.5137 29.7212 26.0512 29.5337 25.5427 29.3813C25.2094 29.285 24.8668 29.2242 24.5208 29.2001C23.6523 29.1409 22.7799 29.2154 21.9341 29.4212C21.5294 29.504 21.202 29.5837 20.9591 29.6462C20.7208 29.7087 20.6216 29.7399 20.5137 29.7727L20.3645 29.8196C20.2161 29.8634 20.1012 29.8946 20.0544 29.9063C19.4769 30.0865 18.9094 30.2972 18.3544 30.5376C17.4208 30.9836 16.5258 31.5062 15.6786 32.1001C14.9458 32.5699 14.1824 32.9901 13.3934 33.3579C11.5038 34.2345 9.48707 34.8059 7.41843 35.0509C8.37627 36.9571 9.73745 38.632 11.4075 39.9595L15.7036 38.672C15.7763 38.6502 15.8519 38.6383 15.9278 38.6384Z" fill="currentColor"/>
<path d="M39.8438 35.9375H30.9297C30.7225 35.9375 30.5238 35.8552 30.3773 35.7087C30.2307 35.5622 30.1484 35.3635 30.1484 35.1562C30.1484 34.949 30.2307 34.7503 30.3773 34.6038C30.5238 34.4573 30.7225 34.375 30.9297 34.375H39.0625V10.1562H13.2812V32.9062C13.2812 33.1134 13.1989 33.3122 13.0524 33.4587C12.9059 33.6052 12.7072 33.6875 12.5 33.6875C12.2928 33.6875 12.0941 33.6052 11.9476 33.4587C11.8011 33.3122 11.7188 33.1134 11.7188 32.9062V9.375C11.7188 9.1678 11.8011 8.96909 11.9476 8.82257C12.0941 8.67606 12.2928 8.59375 12.5 8.59375H39.8438C40.051 8.59375 40.2497 8.67606 40.3962 8.82257C40.5427 8.96909 40.625 9.1678 40.625 9.375V35.1562C40.625 35.3635 40.5427 35.5622 40.3962 35.7087C40.2497 35.8552 40.051 35.9375 39.8438 35.9375Z" fill="currentColor"/>
<path d="M29.2969 16.4062H23.0469C22.8397 16.4062 22.641 16.3239 22.4944 16.1774C22.3479 16.0309 22.2656 15.8322 22.2656 15.625V9.375C22.2656 9.1678 22.3479 8.96909 22.4944 8.82257C22.641 8.67606 22.8397 8.59375 23.0469 8.59375H29.2969C29.5041 8.59375 29.7028 8.67606 29.8493 8.82257C29.9958 8.96909 30.0781 9.1678 30.0781 9.375V15.625C30.0781 15.8322 29.9958 16.0309 29.8493 16.1774C29.7028 16.3239 29.5041 16.4062 29.2969 16.4062ZM23.8281 14.8438H28.5156V10.1562H23.8281V14.8438Z" fill="currentColor"/>
</svg>
