<svg width="35" height="35" viewBox="0 0 35 35" xmlns="http://www.w3.org/2000/svg">
<path d="M15.0398 2.07273C16.3424 0.642425 18.5928 0.642425 19.8955 2.07273L21.5706 3.91202C22.2288 4.6349 23.175 5.02682 24.1518 4.98117L26.6368 4.86504C28.5691 4.77472 30.1606 6.36609 30.0703 8.29855L29.954 10.7836C29.9084 11.7602 30.3003 12.7064 31.0232 13.3647L32.8625 15.0398C34.2929 16.3424 34.2929 18.5928 32.8625 19.8955L31.0232 21.5706C30.3003 22.2288 29.9084 23.175 29.954 24.1518L30.0703 26.6368C30.1606 28.5691 28.5691 30.1606 26.6368 30.0703L24.1518 29.954C23.175 29.9084 22.2288 30.3003 21.5706 31.0232L19.8955 32.8625C18.5928 34.2929 16.3424 34.2929 15.0398 32.8625L13.3647 31.0232C12.7064 30.3003 11.7602 29.9084 10.7836 29.954L8.29853 30.0703C6.36609 30.1606 4.77472 28.5691 4.86504 26.6368L4.98117 24.1518C5.02682 23.175 4.6349 22.2288 3.91202 21.5706L2.07273 19.8955C0.642425 18.5928 0.642425 16.3424 2.07273 15.0398L3.91202 13.3647C4.6349 12.7064 5.02682 11.7602 4.98117 10.7836L4.86504 8.29853C4.77472 6.36609 6.36609 4.77472 8.29855 4.86504L10.7836 4.98117C11.7602 5.02682 12.7064 4.6349 13.3647 3.91202L15.0398 2.07273Z" stroke="currentColor" stroke-width="2" fill="none"/>
<path d="M12.542 17.4679L15.8258 20.7516L22.3933 14.1841" stroke="currentColor" stroke-width="2" stroke-linecap="round" stroke-linejoin="round" fill="none"/>
</svg>
