<svg width="348" height="9" viewBox="0 0 348 9" fill="none" xmlns="http://www.w3.org/2000/svg">
<path d="M9 9L16.7942 3.75H1.20577L9 9Z" fill="black"/>
<path d="M39 9L46.7942 3.75H31.2058L39 9Z" fill="black"/>
<path d="M24 9L31.7942 3.75H16.2058L24 9Z" fill="black"/>
<path d="M54 9L61.7942 3.75H46.2058L54 9Z" fill="black"/>
<path d="M69 9L76.7942 3.75H61.2058L69 9Z" fill="black"/>
<path d="M99 9L106.794 3.75H91.2058L99 9Z" fill="black"/>
<path d="M84 9L91.7942 3.75H76.2058L84 9Z" fill="black"/>
<path d="M114 9L121.794 3.75H106.206L114 9Z" fill="black"/>
<path d="M189 9L196.794 3.75H181.206L189 9Z" fill="black"/>
<path d="M219 9L226.794 3.75H211.206L219 9Z" fill="black"/>
<path d="M204 9L211.794 3.75H196.206L204 9Z" fill="black"/>
<path d="M234 9L241.794 3.75H226.206L234 9Z" fill="black"/>
<path d="M249 9L256.794 3.75H241.206L249 9Z" fill="black"/>
<path d="M279 9L286.794 3.75H271.206L279 9Z" fill="black"/>
<path d="M264 9L271.794 3.75H256.206L264 9Z" fill="black"/>
<path d="M294 9L301.794 3.75H286.206L294 9Z" fill="black"/>
<path d="M309 9L316.794 3.75H301.206L309 9Z" fill="black"/>
<path d="M339 9L346.794 3.75H331.206L339 9Z" fill="black"/>
<path d="M324 9L331.794 3.75H316.206L324 9Z" fill="black"/>
<path d="M129 9L136.794 3.75H121.206L129 9Z" fill="black"/>
<path d="M159 9L166.794 3.75H151.206L159 9Z" fill="black"/>
<path d="M144 9L151.794 3.75H136.206L144 9Z" fill="black"/>
<path d="M174 9L181.794 3.75H166.206L174 9Z" fill="black"/>
<path d="M9 7L16.7942 1.75H1.20577L9 7Z" fill="white"/>
<path d="M39 7L46.7942 1.75H31.2058L39 7Z" fill="white"/>
<path d="M24 7L31.7942 1.75H16.2058L24 7Z" fill="white"/>
<path d="M54 7L61.7942 1.75H46.2058L54 7Z" fill="white"/>
<path d="M69 7L76.7942 1.75H61.2058L69 7Z" fill="white"/>
<path d="M99 7L106.794 1.75H91.2058L99 7Z" fill="white"/>
<path d="M84 7L91.7942 1.75H76.2058L84 7Z" fill="white"/>
<path d="M114 7L121.794 1.75H106.206L114 7Z" fill="white"/>
<path d="M189 7L196.794 1.75H181.206L189 7Z" fill="white"/>
<path d="M219 7L226.794 1.75H211.206L219 7Z" fill="white"/>
<path d="M204 7L211.794 1.75H196.206L204 7Z" fill="white"/>
<path d="M234 7L241.794 1.75H226.206L234 7Z" fill="white"/>
<path d="M249 7L256.794 1.75H241.206L249 7Z" fill="white"/>
<path d="M279 7L286.794 1.75H271.206L279 7Z" fill="white"/>
<path d="M264 7L271.794 1.75H256.206L264 7Z" fill="white"/>
<path d="M294 7L301.794 1.75H286.206L294 7Z" fill="white"/>
<path d="M309 7L316.794 1.75H301.206L309 7Z" fill="white"/>
<path d="M339 7L346.794 1.75H331.206L339 7Z" fill="white"/>
<path d="M324 7L331.794 1.75H316.206L324 7Z" fill="white"/>
<path d="M129 7L136.794 1.75H121.206L129 7Z" fill="white"/>
<path d="M159 7L166.794 1.75H151.206L159 7Z" fill="white"/>
<path d="M144 7L151.794 1.75H136.206L144 7Z" fill="white"/>
<path d="M174 7L181.794 1.75H166.206L174 7Z" fill="white"/>
</svg>
