<svg width="234" height="38" viewBox="0 0 234 38" fill="none" xmlns="http://www.w3.org/2000/svg">
<path d="M12.66 29.36C11 29.36 9.46 29.09 8.04 28.55C6.64 28.01 5.42 27.25 4.38 26.27C3.36 25.29 2.56 24.14 1.98 22.82C1.42 21.5 1.14 20.06 1.14 18.5C1.14 16.94 1.42 15.5 1.98 14.18C2.56 12.86 3.37 11.71 4.41 10.73C5.45 9.75 6.67 8.99 8.07 8.45C9.47 7.91 10.99 7.64 12.63 7.64C14.29 7.64 15.81 7.91 17.19 8.45C18.59 8.99 19.8 9.75 20.82 10.73C21.86 11.71 22.67 12.86 23.25 14.18C23.83 15.48 24.12 16.92 24.12 18.5C24.12 20.06 23.83 21.51 23.25 22.85C22.67 24.17 21.86 25.32 20.82 26.3C19.8 27.26 18.59 28.01 17.19 28.55C15.81 29.09 14.3 29.36 12.66 29.36ZM12.63 25.22C13.57 25.22 14.43 25.06 15.21 24.74C16.01 24.42 16.71 23.96 17.31 23.36C17.91 22.76 18.37 22.05 18.69 21.23C19.03 20.41 19.2 19.5 19.2 18.5C19.2 17.5 19.03 16.59 18.69 15.77C18.37 14.95 17.91 14.24 17.31 13.64C16.73 13.04 16.04 12.58 15.24 12.26C14.44 11.94 13.57 11.78 12.63 11.78C11.69 11.78 10.82 11.94 10.02 12.26C9.24 12.58 8.55 13.04 7.95 13.64C7.35 14.24 6.88 14.95 6.54 15.77C6.22 16.59 6.06 17.5 6.06 18.5C6.06 19.48 6.22 20.39 6.54 21.23C6.88 22.05 7.34 22.76 7.92 23.36C8.52 23.96 9.22 24.42 10.02 24.74C10.82 25.06 11.69 25.22 12.63 25.22ZM35.5139 29.36C34.1939 29.36 32.9939 29.17 31.9139 28.79C30.8339 28.39 29.8939 27.78 29.0939 26.96C28.3139 26.12 27.7039 25.05 27.2639 23.75C26.8439 22.45 26.6339 20.9 26.6339 19.1C26.6339 17.82 26.7439 16.65 26.9639 15.59C27.1839 14.53 27.5139 13.57 27.9539 12.71C28.3939 11.83 28.9539 11.06 29.6339 10.4C30.3339 9.72 31.1439 9.16 32.0639 8.72C33.0039 8.26 34.0639 7.91 35.2439 7.67L42.9239 6.14L43.5539 10.16L36.7739 11.51C36.3739 11.59 35.9139 11.7 35.3939 11.84C34.8939 11.96 34.3839 12.15 33.8639 12.41C33.3639 12.67 32.8939 13.04 32.4539 13.52C32.0339 13.98 31.6939 14.59 31.4339 15.35C31.1739 16.09 31.0439 17.01 31.0439 18.11C31.0439 18.45 31.0539 18.71 31.0739 18.89C31.1139 19.07 31.1439 19.26 31.1639 19.46C31.2039 19.66 31.2239 19.97 31.2239 20.39L29.7239 18.92C30.1639 17.98 30.7239 17.18 31.4039 16.52C32.1039 15.86 32.9039 15.36 33.8039 15.02C34.7239 14.66 35.7439 14.48 36.8639 14.48C38.3839 14.48 39.7139 14.79 40.8539 15.41C42.0139 16.01 42.9139 16.86 43.5539 17.96C44.1939 19.06 44.5139 20.31 44.5139 21.71C44.5139 23.23 44.1339 24.57 43.3739 25.73C42.6139 26.87 41.5539 27.76 40.1939 28.4C38.8539 29.04 37.2939 29.36 35.5139 29.36ZM35.7539 25.73C36.5339 25.73 37.2239 25.56 37.8239 25.22C38.4239 24.86 38.8839 24.39 39.2039 23.81C39.5439 23.21 39.7139 22.54 39.7139 21.8C39.7139 21.08 39.5439 20.44 39.2039 19.88C38.8839 19.32 38.4239 18.88 37.8239 18.56C37.2239 18.24 36.5239 18.08 35.7239 18.08C34.9439 18.08 34.2439 18.24 33.6239 18.56C33.0039 18.86 32.5239 19.28 32.1839 19.82C31.8439 20.36 31.6739 20.99 31.6739 21.71C31.6739 22.45 31.8439 23.13 32.1839 23.75C32.5439 24.35 33.0239 24.83 33.6239 25.19C34.2439 25.55 34.9539 25.73 35.7539 25.73ZM55.2495 29.24C53.5295 29.24 51.9995 28.88 50.6595 28.16C49.3395 27.44 48.2895 26.46 47.5095 25.22C46.7495 23.96 46.3695 22.53 46.3695 20.93C46.3695 19.31 46.7495 17.88 47.5095 16.64C48.2895 15.38 49.3395 14.4 50.6595 13.7C51.9995 12.98 53.5295 12.62 55.2495 12.62C56.9495 12.62 58.4695 12.98 59.8095 13.7C61.1495 14.4 62.1995 15.37 62.9595 16.61C63.7195 17.85 64.0995 19.29 64.0995 20.93C64.0995 22.53 63.7195 23.96 62.9595 25.22C62.1995 26.46 61.1495 27.44 59.8095 28.16C58.4695 28.88 56.9495 29.24 55.2495 29.24ZM55.2495 25.4C56.0295 25.4 56.7295 25.22 57.3495 24.86C57.9695 24.5 58.4595 23.99 58.8195 23.33C59.1795 22.65 59.3595 21.85 59.3595 20.93C59.3595 19.99 59.1795 19.19 58.8195 18.53C58.4595 17.87 57.9695 17.36 57.3495 17C56.7295 16.64 56.0295 16.46 55.2495 16.46C54.4695 16.46 53.7695 16.64 53.1495 17C52.5295 17.36 52.0295 17.87 51.6495 18.53C51.2895 19.19 51.1095 19.99 51.1095 20.93C51.1095 21.85 51.2895 22.65 51.6495 23.33C52.0295 23.99 52.5295 24.5 53.1495 24.86C53.7695 25.22 54.4695 25.4 55.2495 25.4ZM67.3184 29V12.86H71.9684V22.46L79.8284 12.86H84.1184V29H79.4684V19.4L71.6384 29H67.3184Z" fill="black"/>
<path d="M122.842 29V8H132.382C134.662 8 136.672 8.44 138.412 9.32C140.152 10.18 141.512 11.39 142.492 12.95C143.472 14.51 143.962 16.36 143.962 18.5C143.962 20.62 143.472 22.47 142.492 24.05C141.512 25.61 140.152 26.83 138.412 27.71C136.672 28.57 134.662 29 132.382 29H122.842ZM127.702 25.01H132.142C133.542 25.01 134.752 24.75 135.772 24.23C136.812 23.69 137.612 22.93 138.172 21.95C138.752 20.97 139.042 19.82 139.042 18.5C139.042 17.16 138.752 16.01 138.172 15.05C137.612 14.07 136.812 13.32 135.772 12.8C134.752 12.26 133.542 11.99 132.142 11.99H127.702V25.01ZM152.217 16.46H162.327V20.24H152.217V16.46ZM152.577 25.1H164.007V29H147.747V8H163.617V11.9H152.577V25.1ZM181.522 29L174.982 18.89L178.912 16.52L187.042 29H181.522ZM167.872 29V8H172.702V29H167.872ZM171.292 20.54V16.49H178.612V20.54H171.292ZM179.362 19.04L174.892 18.5L181.702 8H186.832L179.362 19.04ZM199.281 29.36C197.621 29.36 196.081 29.09 194.661 28.55C193.261 28.01 192.041 27.25 191.001 26.27C189.981 25.29 189.181 24.14 188.601 22.82C188.041 21.5 187.761 20.06 187.761 18.5C187.761 16.94 188.041 15.5 188.601 14.18C189.181 12.86 189.991 11.71 191.031 10.73C192.071 9.75 193.291 8.99 194.691 8.45C196.091 7.91 197.611 7.64 199.251 7.64C200.911 7.64 202.431 7.91 203.811 8.45C205.211 8.99 206.421 9.75 207.441 10.73C208.481 11.71 209.291 12.86 209.871 14.18C210.451 15.48 210.741 16.92 210.741 18.5C210.741 20.06 210.451 21.51 209.871 22.85C209.291 24.17 208.481 25.32 207.441 26.3C206.421 27.26 205.211 28.01 203.811 28.55C202.431 29.09 200.921 29.36 199.281 29.36ZM199.251 25.22C200.191 25.22 201.051 25.06 201.831 24.74C202.631 24.42 203.331 23.96 203.931 23.36C204.531 22.76 204.991 22.05 205.311 21.23C205.651 20.41 205.821 19.5 205.821 18.5C205.821 17.5 205.651 16.59 205.311 15.77C204.991 14.95 204.531 14.24 203.931 13.64C203.351 13.04 202.661 12.58 201.861 12.26C201.061 11.94 200.191 11.78 199.251 11.78C198.311 11.78 197.441 11.94 196.641 12.26C195.861 12.58 195.171 13.04 194.571 13.64C193.971 14.24 193.501 14.95 193.161 15.77C192.841 16.59 192.681 17.5 192.681 18.5C192.681 19.48 192.841 20.39 193.161 21.23C193.501 22.05 193.961 22.76 194.541 23.36C195.141 23.96 195.841 24.42 196.641 24.74C197.441 25.06 198.311 25.22 199.251 25.22ZM214.485 29V8H223.575C225.455 8 227.075 8.31 228.435 8.93C229.795 9.53 230.845 10.4 231.585 11.54C232.325 12.68 232.695 14.04 232.695 15.62C232.695 17.18 232.325 18.53 231.585 19.67C230.845 20.81 229.795 21.69 228.435 22.31C227.075 22.91 225.455 23.21 223.575 23.21H217.185L219.345 21.02V29H214.485ZM219.345 21.56L217.185 19.25H223.305C224.805 19.25 225.925 18.93 226.665 18.29C227.405 17.65 227.775 16.76 227.775 15.62C227.775 14.46 227.405 13.56 226.665 12.92C225.925 12.28 224.805 11.96 223.305 11.96H217.185L219.345 9.65V21.56Z" fill="#CACACA"/>
<rect x="86" y="1" width="33" height="37" rx="5" fill="#CACACA"/>
<path d="M102.09 30.36C100.55 30.36 99.18 30.11 97.98 29.61C96.78 29.11 95.83 28.43 95.13 27.57C94.43 26.71 94.08 25.72 94.08 24.6C94.08 23.56 94.31 22.63 94.77 21.81C95.23 20.97 95.96 20.19 96.96 19.47C97.96 18.73 99.23 18.01 100.77 17.31C101.89 16.79 102.77 16.33 103.41 15.93C104.05 15.53 104.5 15.15 104.76 14.79C105.02 14.41 105.15 14.03 105.15 13.65C105.15 13.13 104.97 12.71 104.61 12.39C104.27 12.07 103.76 11.91 103.08 11.91C102.36 11.91 101.8 12.09 101.4 12.45C101 12.81 100.8 13.27 100.8 13.83C100.8 14.13 100.86 14.43 100.98 14.73C101.1 15.01 101.33 15.34 101.67 15.72C102.01 16.08 102.49 16.55 103.11 17.13L114.18 27.39L111.63 30.36L99.42 19.02C98.72 18.38 98.16 17.78 97.74 17.22C97.32 16.66 97.01 16.11 96.81 15.57C96.63 15.03 96.54 14.47 96.54 13.89C96.54 12.87 96.81 11.97 97.35 11.19C97.89 10.41 98.65 9.81 99.63 9.39C100.61 8.95 101.76 8.73 103.08 8.73C104.3 8.73 105.35 8.93 106.23 9.33C107.13 9.71 107.83 10.26 108.33 10.98C108.85 11.7 109.11 12.56 109.11 13.56C109.11 14.44 108.89 15.25 108.45 15.99C108.01 16.71 107.32 17.39 106.38 18.03C105.46 18.67 104.25 19.32 102.75 19.98C101.73 20.44 100.92 20.89 100.32 21.33C99.74 21.75 99.32 22.18 99.06 22.62C98.8 23.06 98.67 23.55 98.67 24.09C98.67 24.59 98.82 25.04 99.12 25.44C99.44 25.84 99.88 26.15 100.44 26.37C101 26.59 101.66 26.7 102.42 26.7C103.64 26.7 104.76 26.42 105.78 25.86C106.8 25.28 107.66 24.43 108.36 23.31C109.08 22.17 109.59 20.79 109.89 19.17L113.64 20.34C113.22 22.38 112.47 24.15 111.39 25.65C110.31 27.15 108.98 28.31 107.4 29.13C105.82 29.95 104.05 30.36 102.09 30.36Z" fill="white"/>
</svg>
