<svg width="48" height="38" viewBox="0 0 48 38" fill="none" xmlns="http://www.w3.org/2000/svg">
<circle cx="16" cy="31" r="3" fill="#85B0B3"/>
<path d="M1 36.5454V34.4545C1 26.371 7.55293 19.8181 15.6364 19.8181C23.7198 19.8181 30.2727 26.371 30.2727 34.4545V36.5454" stroke="#85B0B3" stroke-width="2" stroke-linecap="round"/>
<path d="M26.0908 24C26.0908 18.2261 30.7715 13.5454 36.5454 13.5454C42.3192 13.5454 46.9999 18.2261 46.9999 24V25.0454" stroke="#85B0B3" stroke-width="2" stroke-linecap="round"/>
<path d="M15.6366 19.8181C20.2556 19.8181 24.0002 16.0735 24.0002 11.4545C24.0002 6.83535 20.2556 3.09082 15.6366 3.09082C11.0175 3.09082 7.27295 6.83535 7.27295 11.4545C7.27295 16.0735 11.0175 19.8181 15.6366 19.8181Z" stroke="#85B0B3" stroke-width="2" stroke-linecap="round" stroke-linejoin="round"/>
<path d="M36.5457 13.5455C40.0101 13.5455 42.8184 10.737 42.8184 7.27273C42.8184 3.8084 40.0101 1 36.5457 1C33.0812 1 30.2729 3.8084 30.2729 7.27273C30.2729 10.737 33.0812 13.5455 36.5457 13.5455Z" stroke="#85B0B3" stroke-width="2" stroke-linecap="round" stroke-linejoin="round"/>
</svg>
