<svg width="39" height="37" viewBox="0 0 39 37" fill="none" xmlns="http://www.w3.org/2000/svg">
<path d="M33.9949 15.5709C33.9949 7.52363 27.4713 1 19.424 1C11.3767 1 4.85303 7.52363 4.85303 15.5709" stroke="#85B0B3" stroke-width="2" stroke-linecap="round" stroke-linejoin="round"/>
<path d="M1.21045 23.6551V20.2367C1.21045 18.5651 2.34806 17.1082 3.96969 16.7027L7.13805 15.9106C7.82779 15.7381 8.49592 16.2598 8.49592 16.9708V26.921C8.49592 27.632 7.82779 28.1537 7.13805 27.9812L3.96969 27.1891C2.34806 26.7836 1.21045 25.3267 1.21045 23.6551Z" stroke="#85B0B3" stroke-width="2"/>
<path d="M37.638 23.6551V20.2367C37.638 18.5651 36.5004 17.1082 34.8788 16.7027L31.7104 15.9106C31.0206 15.7381 30.3525 16.2598 30.3525 16.9708V26.921C30.3525 27.632 31.0206 28.1537 31.7104 27.9812L34.8788 27.1891C36.5004 26.7836 37.638 25.3267 37.638 23.6551Z" stroke="#85B0B3" stroke-width="2"/>
<path d="M33.9951 28.3206V29.2312C33.9951 31.2431 32.3642 32.874 30.3523 32.874H23.9775" stroke="#85B0B3" stroke-width="2"/>
<path d="M22.1561 35.6059H16.692C15.1831 35.6059 13.96 34.3827 13.96 32.8739C13.96 31.3651 15.1831 30.1418 16.692 30.1418H22.1561C23.6649 30.1418 24.8882 31.3651 24.8882 32.8739C24.8882 34.3827 23.6649 35.6059 22.1561 35.6059Z" stroke="#85B0B3" stroke-width="2"/>
</svg>
