<svg width="232" height="37" viewBox="0 0 232 37" fill="none" xmlns="http://www.w3.org/2000/svg">
<path d="M11.6301 28.3601C5.00014 28.3601 0.140137 23.7401 0.140137 17.5001C0.140137 11.2601 5.00014 6.6401 11.6301 6.6401C18.2301 6.6401 23.1201 11.2301 23.1201 17.5001C23.1201 23.7701 18.2301 28.3601 11.6301 28.3601ZM11.6301 24.2201C15.3801 24.2201 18.2001 21.4901 18.2001 17.5001C18.2001 13.5101 15.3801 10.7801 11.6301 10.7801C7.88014 10.7801 5.06014 13.5101 5.06014 17.5001C5.06014 21.4901 7.88014 24.2201 11.6301 24.2201Z" fill="black"/>
<path d="M35.834 12.9701C40.484 12.9701 43.514 16.0001 43.514 20.5301C43.514 25.2401 39.824 28.3601 34.694 28.3601C29.204 28.3601 25.634 24.8501 25.634 17.6801C25.634 11.2601 28.334 7.3301 34.244 6.1301L41.924 4.6001L42.554 8.6201L35.774 9.9701C32.084 10.6901 30.434 12.2501 30.104 15.3401C31.484 13.8401 33.464 12.9701 35.834 12.9701ZM34.724 24.7301C37.184 24.7301 38.714 22.9301 38.714 20.5901C38.714 18.1301 37.124 16.6001 34.724 16.6001C32.324 16.6001 30.674 18.1301 30.674 20.5901C30.674 23.0201 32.354 24.7301 34.724 24.7301Z" fill="black"/>
<path d="M54.2496 28.2401C49.1196 28.2401 45.3696 24.7901 45.3696 19.9301C45.3696 15.0701 49.1196 11.6201 54.2496 11.6201C59.3796 11.6201 63.0996 15.0701 63.0996 19.9301C63.0996 24.7901 59.3796 28.2401 54.2496 28.2401ZM54.2496 24.4001C56.5896 24.4001 58.3596 22.7201 58.3596 19.9301C58.3596 17.1401 56.5896 15.4601 54.2496 15.4601C51.9096 15.4601 50.1096 17.1401 50.1096 19.9301C50.1096 22.7201 51.9096 24.4001 54.2496 24.4001Z" fill="black"/>
<path d="M66.3185 28.0001V11.8601H70.9685V21.4601L78.8285 11.8601H83.1185V28.0001H78.4685V18.4001L70.6385 28.0001H66.3185Z" fill="black"/>
<path d="M121.842 28.0001V7.0001H131.382C138.252 7.0001 142.962 11.1401 142.962 17.5001C142.962 23.8601 138.252 28.0001 131.382 28.0001H121.842ZM126.702 24.0101H131.142C135.312 24.0101 138.042 21.5201 138.042 17.5001C138.042 13.4801 135.312 10.9901 131.142 10.9901H126.702V24.0101Z" fill="#85B0B3"/>
<path d="M151.577 24.1001H163.007V28.0001H146.747V7.0001H162.617V10.9001H151.577V15.4601H161.327V19.2401H151.577V24.1001Z" fill="#85B0B3"/>
<path d="M180.522 28.0001L175.062 19.5401H171.702V28.0001H166.872V7.0001H171.702V15.4901H175.182L180.702 7.0001H185.832L178.962 17.1401L186.042 28.0001H180.522Z" fill="#85B0B3"/>
<path d="M198.251 28.3601C191.621 28.3601 186.761 23.7401 186.761 17.5001C186.761 11.2601 191.621 6.6401 198.251 6.6401C204.851 6.6401 209.741 11.2301 209.741 17.5001C209.741 23.7701 204.851 28.3601 198.251 28.3601ZM198.251 24.2201C202.001 24.2201 204.821 21.4901 204.821 17.5001C204.821 13.5101 202.001 10.7801 198.251 10.7801C194.501 10.7801 191.681 13.5101 191.681 17.5001C191.681 21.4901 194.501 24.2201 198.251 24.2201Z" fill="#85B0B3"/>
<path d="M222.575 7.0001C228.185 7.0001 231.695 9.9101 231.695 14.6201C231.695 19.3001 228.185 22.2101 222.575 22.2101H218.345V28.0001H213.485V7.0001H222.575ZM222.305 18.2501C225.275 18.2501 226.775 16.9001 226.775 14.6201C226.775 12.3101 225.275 10.9601 222.305 10.9601H218.345V18.2501H222.305Z" fill="#85B0B3"/>
<rect x="85" width="33" height="37" rx="5" fill="#85B0B3"/>
<path d="M113.18 26.39L110.63 29.36L108.11 27.02C106.19 28.52 103.79 29.36 101.09 29.36C96.47 29.36 93.08 26.96 93.08 23.6C93.08 20.96 94.49 19.13 97.7 17.33C96.17 15.74 95.54 14.39 95.54 12.89C95.54 9.83 98.12 7.73 102.08 7.73C105.71 7.73 108.11 9.59 108.11 12.56C108.11 14.72 106.85 16.31 104 17.87L107.84 21.44C108.29 20.51 108.65 19.4 108.89 18.17L112.64 19.34C112.25 21.14 111.62 22.76 110.72 24.11L113.18 26.39ZM102.08 10.91C100.64 10.91 99.8 11.72 99.8 12.83C99.8 13.64 100.13 14.24 101.42 15.5C103.49 14.39 104.15 13.61 104.15 12.65C104.15 11.63 103.43 10.91 102.08 10.91ZM101.42 25.7C102.86 25.7 104.21 25.28 105.35 24.47L100.28 19.73C98.36 20.84 97.67 21.8 97.67 23.09C97.67 24.62 99.11 25.7 101.42 25.7Z" fill="white"/>
</svg>
