<svg width="0" height="0" class="hidden">
  <symbol xmlns="http://www.w3.org/2000/svg" viewBox="0 0 14 24" id="ic_arr_hor">
    <path d="M12 2L2 12L12 22" stroke="currentColor" stroke-width="3" stroke-linecap="round" stroke-linejoin="round" fill="none"></path>
  </symbol>
  <symbol xmlns="http://www.w3.org/2000/svg" viewBox="0 0 13 8" id="ic_arr_ver">
    <path fill-rule="evenodd" clip-rule="evenodd" d="M12.7071 0.292893C13.0976 0.683418 13.0976 1.31658 12.7071 1.70711L7.20711 7.20711C6.81658 7.59763 6.18342 7.59763 5.79289 7.20711L0.292893 1.70711C-0.0976315 1.31658 -0.0976315 0.683417 0.292893 0.292893C0.683417 -0.0976316 1.31658 -0.0976316 1.70711 0.292893L6.5 5.08579L11.2929 0.292893C11.6834 -0.0976312 12.3166 -0.0976311 12.7071 0.292893Z" fill="currentColor"></path>
  </symbol>
  <symbol xmlns="http://www.w3.org/2000/svg" viewBox="0 0 22 22" id="ic_cart">
    <path d="M18.5 20.9998C19.3284 20.9998 20 20.3282 20 19.4998C20 18.6714 19.3284 17.9998 18.5 17.9998C17.6716 17.9998 17 18.6714 17 19.4998C17 20.3282 17.6716 20.9998 18.5 20.9998Z" fill="currentColor" stroke="currentColor" stroke-width="2" stroke-linecap="round" stroke-linejoin="round"></path>
    <path d="M8.5 20.9998C9.3284 20.9998 10 20.3282 10 19.4998C10 18.6714 9.3284 17.9998 8.5 17.9998C7.67157 17.9998 7 18.6714 7 19.4998C7 20.3282 7.67157 20.9998 8.5 20.9998Z" fill="currentColor" stroke="currentColor" stroke-width="2" stroke-linecap="round" stroke-linejoin="round"></path>
    <path d="M4 3H21L19 14H6L4 3ZM4 3C3.83333 2.33333 3 1 1 1" stroke="currentColor" stroke-width="2" stroke-linecap="round" stroke-linejoin="round" fill="none"></path>
    <path d="M19 14H6H4.23077C2.44646 14 1.5 14.7812 1.5 16C1.5 17.2188 2.44646 18 4.23077 18H18.5" stroke="currentColor" stroke-width="2" stroke-linecap="round" stroke-linejoin="round" fill="none"></path>
  </symbol>
  <symbol xmlns="http://www.w3.org/2000/svg" viewBox="0 0 16 16" id="ic_check">
    <path d="M14 2.2469C13.4594 1.82815 12.7031 1.95627 12.3094 2.53127L6.68752 10.7563L3.59064 7.40315C3.13439 6.8844 2.36877 6.8594 1.88127 7.3469C1.39377 7.83127 1.36877 8.6469 1.82814 9.16252C1.82814 9.16252 5.59064 13.3375 6.13127 13.7563C6.67189 14.175 7.42814 14.0469 7.82189 13.4719L14.2688 4.04377C14.6625 3.46565 14.5406 2.66252 14 2.2469Z" fill="currentColor"></path>
  </symbol>
  <symbol xmlns="http://www.w3.org/2000/svg" viewBox="0 0 13 13" id="ic_close">
    <path fill-rule="evenodd" clip-rule="evenodd" d="M12.7071 0.292893C13.0976 0.683418 13.0976 1.31658 12.7071 1.70711L7.20711 7.20711C6.81658 7.59763 6.18342 7.59763 5.79289 7.20711L0.292893 1.70711C-0.0976315 1.31658 -0.0976315 0.683417 0.292893 0.292893C0.683417 -0.0976316 1.31658 -0.0976316 1.70711 0.292893L6.5 5.08579L11.2929 0.292893C11.6834 -0.0976312 12.3166 -0.0976311 12.7071 0.292893Z" fill="currentColor"></path>
    <path fill-rule="evenodd" clip-rule="evenodd" d="M12.7071 12.7071C13.0976 12.3166 13.0976 11.6834 12.7071 11.2929L7.20711 5.79289C6.81658 5.40237 6.18342 5.40237 5.79289 5.79289L0.292893 11.2929C-0.0976315 11.6834 -0.0976315 12.3166 0.292893 12.7071C0.683417 13.0976 1.31658 13.0976 1.70711 12.7071L6.5 7.91421L11.2929 12.7071C11.6834 13.0976 12.3166 13.0976 12.7071 12.7071Z" fill="currentColor"></path>
  </symbol>
  <symbol xmlns="http://www.w3.org/2000/svg" viewBox="0 0 50 50" id="ic_delivery">
    <path d="M22.3427 43.4806C21.6091 43.4806 20.6825 43.2321 18.827 42.2102C17.7735 41.6287 16.756 40.984 15.7802 40.2798L11.4716 41.572C11.3541 41.6071 11.23 41.6141 11.1094 41.5924C10.9887 41.5706 10.8749 41.5208 10.777 41.447C8.45447 39.6985 6.6425 37.3599 5.52937 34.6743C5.48181 34.5597 5.46224 34.4354 5.47229 34.3117C5.48234 34.188 5.52172 34.0684 5.58716 33.963C5.6526 33.8575 5.74222 33.7692 5.84861 33.7053C5.95499 33.6413 6.07507 33.6037 6.1989 33.5954C8.46091 33.4541 10.6769 32.8936 12.7341 31.9423C13.4484 31.6093 14.14 31.2295 14.8044 30.8056C15.7241 30.1604 16.6969 29.5943 17.7122 29.1134C18.3384 28.8404 18.9795 28.603 19.6325 28.4024C19.6911 28.3868 19.7895 28.3602 19.9169 28.3227L20.0473 28.2821C20.1731 28.2431 20.2895 28.2063 20.5669 28.1337C20.8302 28.0657 21.1841 27.9798 21.6216 27.8899C22.6125 27.6524 23.6341 27.5691 24.6505 27.6431C25.1046 27.6764 25.5539 27.7573 25.9911 27.8845C26.5708 28.0579 27.0903 28.2696 27.5927 28.4735C28.1323 28.7047 28.6845 28.9056 29.2466 29.0751C29.7311 29.2138 30.2284 29.3036 30.7309 29.3431C31.2286 29.3907 31.8481 29.4501 32.1169 30.1079C32.1972 30.3303 32.2258 30.5681 32.2004 30.8033C32.1751 31.0384 32.0966 31.2647 31.9708 31.4649C31.6282 32.1317 31.0704 32.6631 30.3878 32.9729C29.7053 33.2828 28.938 33.3529 28.2106 33.172C27.995 33.1392 27.7989 33.1017 27.6184 33.0595C27.887 33.2524 28.1684 33.4267 28.4606 33.5813C29.5671 34.1644 30.804 34.4556 32.0544 34.4274L34.4137 34.4267C34.607 34.4268 34.7934 34.4986 34.9369 34.6282C35.0803 34.7578 35.1706 34.9359 35.1903 35.1282C35.268 35.7595 35.1579 36.3997 34.8739 36.9688C34.1317 38.4079 32.2723 39.1392 30.177 38.8423C28.5784 40.088 26.9368 41.2775 25.2552 42.4087C24.4637 43.0172 23.5152 43.3874 22.5208 43.4759C22.4614 43.4789 22.4021 43.4805 22.3427 43.4806ZM15.9278 38.6384C16.0952 38.6385 16.2582 38.6925 16.3927 38.7923C17.4082 39.5458 18.4731 40.2304 19.5802 40.8415C21.6114 41.9595 22.17 41.929 22.438 41.9157C23.15 41.8391 23.8252 41.5598 24.3833 41.111C26.1287 39.937 27.8304 38.6991 29.4848 37.4001C29.5729 37.3308 29.6749 37.2814 29.7839 37.2553C29.8928 37.2291 30.0062 37.2268 30.1161 37.2485C31.6192 37.5407 33.0364 37.122 33.4848 36.2532C33.5282 36.169 33.5628 36.0805 33.588 35.9892H32.0731C30.6141 36.0216 29.1697 35.6935 27.8679 35.0339C26.5661 34.3743 25.4473 33.4036 24.6106 32.2079C24.2764 32.1853 23.9409 32.1856 23.6067 32.2087C23.4661 32.2188 23.3489 32.2306 23.2708 32.2399C23.0649 32.2638 22.858 32.2048 22.6956 32.0761C22.5332 31.9474 22.4286 31.7595 22.4048 31.5536C22.3809 31.3478 22.4399 31.1409 22.5686 30.9785C22.6973 30.816 22.8852 30.7114 23.0911 30.6876C23.1848 30.6767 23.3255 30.6626 23.4989 30.6501C24.0442 30.6131 24.5917 30.6254 25.1348 30.6868L25.1497 30.6884C25.7259 30.7618 26.2884 30.9189 26.8192 31.1548C27.3394 31.3823 27.887 31.5412 28.4481 31.6274C28.7271 31.6987 29.0168 31.718 29.3028 31.6845C29.7786 31.5624 30.1987 31.2822 30.4942 30.8899C29.9261 30.8397 29.3642 30.7351 28.8161 30.5774C28.2002 30.3926 27.5951 30.1735 27.0036 29.9212C26.5137 29.7212 26.0512 29.5337 25.5427 29.3813C25.2094 29.285 24.8668 29.2242 24.5208 29.2001C23.6523 29.1409 22.7799 29.2154 21.9341 29.4212C21.5294 29.504 21.202 29.5837 20.9591 29.6462C20.7208 29.7087 20.6216 29.7399 20.5137 29.7727L20.3645 29.8196C20.2161 29.8634 20.1012 29.8946 20.0544 29.9063C19.4769 30.0865 18.9094 30.2972 18.3544 30.5376C17.4208 30.9836 16.5258 31.5062 15.6786 32.1001C14.9458 32.5699 14.1824 32.9901 13.3934 33.3579C11.5038 34.2345 9.48707 34.8059 7.41843 35.0509C8.37627 36.9571 9.73745 38.632 11.4075 39.9595L15.7036 38.672C15.7763 38.6502 15.8519 38.6383 15.9278 38.6384Z" fill="currentColor"></path>
    <path d="M39.8438 35.9375H30.9297C30.7225 35.9375 30.5238 35.8552 30.3773 35.7087C30.2307 35.5622 30.1484 35.3635 30.1484 35.1562C30.1484 34.949 30.2307 34.7503 30.3773 34.6038C30.5238 34.4573 30.7225 34.375 30.9297 34.375H39.0625V10.1562H13.2812V32.9062C13.2812 33.1134 13.1989 33.3122 13.0524 33.4587C12.9059 33.6052 12.7072 33.6875 12.5 33.6875C12.2928 33.6875 12.0941 33.6052 11.9476 33.4587C11.8011 33.3122 11.7188 33.1134 11.7188 32.9062V9.375C11.7188 9.1678 11.8011 8.96909 11.9476 8.82257C12.0941 8.67606 12.2928 8.59375 12.5 8.59375H39.8438C40.051 8.59375 40.2497 8.67606 40.3962 8.82257C40.5427 8.96909 40.625 9.1678 40.625 9.375V35.1562C40.625 35.3635 40.5427 35.5622 40.3962 35.7087C40.2497 35.8552 40.051 35.9375 39.8438 35.9375Z" fill="currentColor"></path>
    <path d="M29.2969 16.4062H23.0469C22.8397 16.4062 22.641 16.3239 22.4944 16.1774C22.3479 16.0309 22.2656 15.8322 22.2656 15.625V9.375C22.2656 9.1678 22.3479 8.96909 22.4944 8.82257C22.641 8.67606 22.8397 8.59375 23.0469 8.59375H29.2969C29.5041 8.59375 29.7028 8.67606 29.8493 8.82257C29.9958 8.96909 30.0781 9.1678 30.0781 9.375V15.625C30.0781 15.8322 29.9958 16.0309 29.8493 16.1774C29.7028 16.3239 29.5041 16.4062 29.2969 16.4062ZM23.8281 14.8438H28.5156V10.1562H23.8281V14.8438Z" fill="currentColor"></path>
  </symbol>
  <symbol xmlns="http://www.w3.org/2000/svg" viewBox="0 0 22 22" id="ic_search">
    <path d="M16 16L21 21" stroke="currentColor" stroke-width="2" stroke-linecap="round" stroke-linejoin="round" fill="none"></path>
    <path d="M1 9.57143C1 14.3053 4.83756 18.1429 9.57143 18.1429C11.9424 18.1429 14.0887 17.1801 15.6404 15.6243C17.1869 14.0739 18.1429 11.9343 18.1429 9.57143C18.1429 4.83756 14.3053 1 9.57143 1C4.83756 1 1 4.83756 1 9.57143Z" stroke="currentColor" stroke-width="2" stroke-linecap="round" stroke-linejoin="round" fill="none"></path>
  </symbol>
  <symbol xmlns="http://www.w3.org/2000/svg" viewBox="0 0 22 25" id="ic_user">
    <path id="Vector" d="M1 23.857V22.4285C1 16.9056 5.47716 12.4285 11 12.4285C16.5229 12.4285 21 16.9056 21 22.4285V23.857" stroke="currentColor" stroke-width="2" stroke-linecap="round" stroke-linejoin="round" fill="none"></path>
    <path id="Vector_2" d="M10.9999 12.4286C14.1558 12.4286 16.7142 9.87014 16.7142 6.71429C16.7142 3.55837 14.1558 1 10.9999 1C7.84402 1 5.28564 3.55837 5.28564 6.71429C5.28564 9.87014 7.84402 12.4286 10.9999 12.4286Z" stroke="currentColor" stroke-width="2" stroke-linecap="round" stroke-linejoin="round" fill="none"></path>
  </symbol>
  <symbol xmlns="http://www.w3.org/2000/svg" viewBox="0 0 35 35" id="ic_verify">
    <path d="M15.0398 2.07273C16.3424 0.642425 18.5928 0.642425 19.8955 2.07273L21.5706 3.91202C22.2288 4.6349 23.175 5.02682 24.1518 4.98117L26.6368 4.86504C28.5691 4.77472 30.1606 6.36609 30.0703 8.29855L29.954 10.7836C29.9084 11.7602 30.3003 12.7064 31.0232 13.3647L32.8625 15.0398C34.2929 16.3424 34.2929 18.5928 32.8625 19.8955L31.0232 21.5706C30.3003 22.2288 29.9084 23.175 29.954 24.1518L30.0703 26.6368C30.1606 28.5691 28.5691 30.1606 26.6368 30.0703L24.1518 29.954C23.175 29.9084 22.2288 30.3003 21.5706 31.0232L19.8955 32.8625C18.5928 34.2929 16.3424 34.2929 15.0398 32.8625L13.3647 31.0232C12.7064 30.3003 11.7602 29.9084 10.7836 29.954L8.29853 30.0703C6.36609 30.1606 4.77472 28.5691 4.86504 26.6368L4.98117 24.1518C5.02682 23.175 4.6349 22.2288 3.91202 21.5706L2.07273 19.8955C0.642425 18.5928 0.642425 16.3424 2.07273 15.0398L3.91202 13.3647C4.6349 12.7064 5.02682 11.7602 4.98117 10.7836L4.86504 8.29853C4.77472 6.36609 6.36609 4.77472 8.29855 4.86504L10.7836 4.98117C11.7602 5.02682 12.7064 4.6349 13.3647 3.91202L15.0398 2.07273Z" stroke="currentColor" stroke-width="2" fill="none"></path>
    <path d="M12.542 17.4679L15.8258 20.7516L22.3933 14.1841" stroke="currentColor" stroke-width="2" stroke-linecap="round" stroke-linejoin="round" fill="none"></path>
  </symbol>
  <symbol xmlns="http://www.w3.org/2000/svg" viewBox="0 0 20 21" id="ic_whatsapp">
    <path d="M14.6 12.025C14.4 11.925 13.1 11.325 12.9 11.225C12.7 11.125 12.5 11.125 12.3 11.325C12.1 11.525 11.7 12.125 11.5 12.325C11.4 12.525 11.2 12.525 11 12.425C10.3 12.125 9.6 11.725 9 11.225C8.5 10.725 8 10.125 7.6 9.525C7.5 9.325 7.6 9.125 7.7 9.025C7.8 8.925 7.9 8.725 8.1 8.625C8.2 8.525 8.3 8.325 8.3 8.225C8.4 8.125 8.4 7.925 8.3 7.825C8.2 7.725 7.7 6.525 7.5 6.025C7.4 5.325 7.2 5.325 7 5.325H6.5C6.3 5.325 6 5.525 5.9 5.625C5.3 6.225 5 6.925 5 7.725C5.1 8.625 5.4 9.525 6 10.325C7.1 11.925 8.5 13.225 10.2 14.025C10.7 14.225 11.1 14.425 11.6 14.525C12.1 14.725 12.6 14.725 13.2 14.625C13.9 14.525 14.5 14.025 14.9 13.425C15.1 13.025 15.1 12.625 15 12.225L14.6 12.025ZM17.1 2.925C13.2 -0.975 6.9 -0.975 3 2.925C-0.2 6.125 -0.8 11.025 1.4 14.925L0 20.025L5.3 18.625C6.8 19.425 8.4 19.825 10 19.825C15.5 19.825 19.9 15.425 19.9 9.925C20 7.325 18.9 4.825 17.1 2.925ZM14.4 16.925C13.1 17.725 11.6 18.225 10 18.225C8.5 18.225 7.1 17.825 5.8 17.125L5.5 16.925L2.4 17.725L3.2 14.725L3 14.425C0.6 10.425 1.8 5.425 5.7 2.925C9.6 0.425 14.6 1.725 17 5.525C19.4 9.425 18.3 14.525 14.4 16.925Z" fill="currentColor"></path>
  </symbol>
</svg>